<svg width="1397" height="536" viewBox="0 0 1397 536" fill="none" xmlns="http://www.w3.org/2000/svg">
<g filter="url(#filter0_d_259_98)">
<mask id="path-1-inside-1_259_98" fill="white">
<path d="M1368 0C1377.94 0 1386 8.05887 1386 18V400C1386 411.046 1377.05 420 1366 420H1047.67C1042.54 420 1037.6 421.976 1033.88 425.519L937.342 517.481C933.623 521.024 928.684 523 923.547 523H19C9.05887 523 1 514.941 1 505V18C1.00001 8.05888 9.05888 0 19 0H1368Z"/>
</mask>
<path d="M1368 0C1377.94 0 1386 8.05887 1386 18V400C1386 411.046 1377.05 420 1366 420H1047.67C1042.54 420 1037.6 421.976 1033.88 425.519L937.342 517.481C933.623 521.024 928.684 523 923.547 523H19C9.05887 523 1 514.941 1 505V18C1.00001 8.05888 9.05888 0 19 0H1368Z" fill="#99C59A"/>
<path d="M1 18L0 18V18H1ZM937.342 517.481L938.032 518.205L937.342 517.481ZM1033.88 425.519L1034.57 426.243L1033.88 425.519ZM1368 0V1C1377.39 1 1385 8.61116 1385 18H1386H1387C1387 7.50659 1378.49 -1 1368 -1V0ZM1386 18H1385V400H1386H1387V18H1386ZM1366 420V419H1047.67V420V421H1366V420ZM1033.88 425.519L1033.19 424.795L936.653 516.757L937.342 517.481L938.032 518.205L1034.57 426.243L1033.88 425.519ZM923.547 523V522H19V523V524H923.547V523ZM19 523V522C9.61116 522 2 514.389 2 505H1H0C0 515.493 8.50659 524 19 524V523ZM1 505H2V18H1H0V505H1ZM1 18L2 18C2.00001 8.61117 9.61117 1 19 1V0V-1C8.50659 -1 8.46716e-06 7.5066 0 18L1 18ZM19 0V1H1368V0V-1H19V0ZM937.342 517.481L936.653 516.757C933.119 520.123 928.427 522 923.547 522V523V524C928.941 524 934.127 521.925 938.032 518.205L937.342 517.481ZM1047.67 420V419C1042.28 419 1037.09 421.075 1033.19 424.795L1033.88 425.519L1034.57 426.243C1038.1 422.877 1042.79 421 1047.67 421V420ZM1386 400H1385C1385 410.493 1376.49 419 1366 419V420V421C1377.6 421 1387 411.598 1387 400H1386Z" fill="#9F9191" mask="url(#path-1-inside-1_259_98)"/>
</g>
<defs>
<filter id="filter0_d_259_98" x="0" y="0" width="1397" height="536" filterUnits="userSpaceOnUse" color-interpolation-filters="sRGB">
<feFlood flood-opacity="0" result="BackgroundImageFix"/>
<feColorMatrix in="SourceAlpha" type="matrix" values="0 0 0 0 0 0 0 0 0 0 0 0 0 0 0 0 0 0 127 0" result="hardAlpha"/>
<feOffset dx="5" dy="7"/>
<feGaussianBlur stdDeviation="3"/>
<feComposite in2="hardAlpha" operator="out"/>
<feColorMatrix type="matrix" values="0 0 0 0 0 0 0 0 0 0 0 0 0 0 0 0 0 0 0.25 0"/>
<feBlend mode="normal" in2="BackgroundImageFix" result="effect1_dropShadow_259_98"/>
<feBlend mode="normal" in="SourceGraphic" in2="effect1_dropShadow_259_98" result="shape"/>
</filter>
</defs>
</svg>
