<svg width="423" height="115" viewBox="0 0 423 115" fill="none" xmlns="http://www.w3.org/2000/svg">
<g filter="url(#filter0_d_51_695)">
<mask id="path-1-inside-1_51_695" fill="white">
<path fill-rule="evenodd" clip-rule="evenodd" d="M16.0048 77.7519C3.25935 90.307 12.1494 112 30.0402 112H400.89C411.936 112 420.89 103.046 420.89 92V29C420.89 17.9543 411.936 9 400.89 9H93.9951C88.7429 9 83.7015 11.066 79.9598 14.7519L16.0048 77.7519Z"/>
</mask>
<path fill-rule="evenodd" clip-rule="evenodd" d="M16.0048 77.7519C3.25935 90.307 12.1494 112 30.0402 112H400.89C411.936 112 420.89 103.046 420.89 92V29C420.89 17.9543 411.936 9 400.89 9H93.9951C88.7429 9 83.7015 11.066 79.9598 14.7519L16.0048 77.7519Z" fill="#3D513D"/>
<path d="M79.9598 14.7519L79.258 14.0395L79.9598 14.7519ZM400.89 111H30.0402V113H400.89V111ZM419.89 29V92H421.89V29H419.89ZM93.9951 10H400.89V8H93.9951V10ZM79.258 14.0395L15.303 77.0395L16.7066 78.4643L80.6615 15.4643L79.258 14.0395ZM93.9951 8C88.4803 8 83.1868 10.1694 79.258 14.0395L80.6615 15.4643C84.2161 11.9627 89.0055 10 93.9951 10V8ZM421.89 29C421.89 17.402 412.488 8 400.89 8V10C411.383 10 419.89 18.5066 419.89 29H421.89ZM30.0402 111C13.044 111 4.59839 90.3917 16.7066 78.4643L15.303 77.0395C1.92031 90.2224 11.2549 113 30.0402 113V111ZM400.89 113C412.488 113 421.89 103.598 421.89 92H419.89C419.89 102.493 411.383 111 400.89 111V113Z" fill="white" mask="url(#path-1-inside-1_51_695)"/>
</g>
<defs>
<filter id="filter0_d_51_695" x="0" y="0" width="422.89" height="115" filterUnits="userSpaceOnUse" color-interpolation-filters="sRGB">
<feFlood flood-opacity="0" result="BackgroundImageFix"/>
<feColorMatrix in="SourceAlpha" type="matrix" values="0 0 0 0 0 0 0 0 0 0 0 0 0 0 0 0 0 0 127 0" result="hardAlpha"/>
<feOffset dx="-4" dy="-3"/>
<feGaussianBlur stdDeviation="3"/>
<feComposite in2="hardAlpha" operator="out"/>
<feColorMatrix type="matrix" values="0 0 0 0 0 0 0 0 0 0 0 0 0 0 0 0 0 0 0.25 0"/>
<feBlend mode="normal" in2="BackgroundImageFix" result="effect1_dropShadow_51_695"/>
<feBlend mode="normal" in="SourceGraphic" in2="effect1_dropShadow_51_695" result="shape"/>
</filter>
</defs>
</svg>
